<?xml version="1.0" standalone="no"?>
<!DOCTYPE svg PUBLIC "-//W3C//DTD SVG 20010904//EN"
 "http://www.w3.org/TR/2001/REC-SVG-20010904/DTD/svg10.dtd">
<svg version="1.0" xmlns="http://www.w3.org/2000/svg"
 width="500.000000pt" height="500.000000pt" viewBox="0 0 500.000000 500.000000"
 preserveAspectRatio="xMidYMid meet">

<g transform="translate(0.000000,500.000000) scale(0.100000,-0.100000)"
fill="#000000" stroke="none">
<path d="M2360 4264 c-14 -2 -59 -9 -100 -15 -182 -27 -404 -116 -572 -230
-53 -36 -141 -111 -204 -174 -208 -208 -331 -438 -396 -739 -31 -146 -31 -398
1 -546 30 -140 62 -235 121 -355 73 -149 142 -246 264 -372 l109 -114 -36
-177 c-41 -194 -45 -270 -21 -353 26 -88 100 -188 170 -227 15 -8 16 -13 7
-23 -14 -14 2 -59 37 -109 11 -15 20 -30 20 -33 0 -3 -100 -4 -222 -3 -123 0
-236 -3 -253 -8 l-30 -8 25 -10 c31 -12 2426 -11 2447 1 36 20 -22 26 -234 24
-123 -1 -223 1 -223 3 0 3 11 20 24 37 14 18 30 45 36 62 9 25 8 31 -7 43 -17
12 -16 15 12 35 80 57 135 137 159 232 23 85 21 112 -24 331 l-40 197 98 101
c185 191 308 412 367 660 63 265 54 521 -26 774 -71 223 -184 408 -354 578
-229 230 -494 362 -820 409 -91 13 -272 18 -335 9z m-606 -800 c9 -3 16 -12
16 -20 0 -11 -32 -14 -175 -14 -144 0 -175 2 -175 14 0 8 6 17 13 19 18 8 302
8 321 1z m1325 -7 c6 -8 8 -17 4 -20 -3 -4 -269 -7 -590 -7 -496 0 -583 2
-583 14 0 8 6 17 13 19 6 3 267 6 578 6 463 1 569 -1 578 -12z m535 7 c9 -3
16 -12 16 -20 0 -11 -29 -14 -153 -14 -85 0 -157 3 -160 7 -4 3 -2 12 4 20 9
10 45 13 144 13 74 0 140 -3 149 -6z m-1099 -104 c-27 -4 -67 -14 -87 -23 -84
-35 -260 -166 -342 -254 -21 -22 -35 -30 -44 -25 -19 12 138 160 243 228 105
68 144 83 220 82 l60 0 -50 -8z m-895 -75 c0 -12 -18 -15 -100 -15 -82 0 -100
3 -100 15 0 12 18 15 100 15 82 0 100 -3 100 -15z m586 0 c-30 -22 -426 -22
-426 0 0 13 31 15 223 15 197 -1 220 -2 203 -15z m1037 0 c1 -6 -76 -11 -213
-13 -179 -2 -219 0 -235 13 -18 13 4 14 213 12 144 -1 233 -6 235 -12z m387 0
c0 -13 -22 -15 -134 -15 -123 0 -157 6 -139 24 3 3 66 6 140 6 112 0 133 -2
133 -15z m-890 -165 c59 -20 103 -39 90 -40 -3 0 -30 7 -60 15 -30 8 -92 19
-138 25 -70 9 -86 8 -105 -5 -25 -17 -60 -19 -87 -5 -27 15 -111 -14 -161 -55
-47 -40 -65 -39 -28 1 28 31 87 62 149 80 69 21 258 11 340 -16z m-715 0 c-18
-20 -29 -20 -309 -18 -268 3 -291 4 -294 21 -3 16 17 17 309 17 l312 0 -18
-20z m1603 3 c-3 -17 -27 -18 -319 -21 -305 -2 -316 -2 -334 18 l-18 20 337 0
c316 0 337 -1 334 -17z m-1468 -62 c0 -16 3 -38 6 -48 3 -10 -2 -7 -10 7 -17
28 -21 70 -6 70 6 0 10 -13 10 -29z m-149 -60 c-6 -10 -8 -21 -6 -25 3 -3 0
-2 -6 3 -13 11 -5 41 11 41 7 0 8 -6 1 -19z m-396 -41 c0 -12 -17 -15 -95 -15
-83 0 -95 2 -98 18 -3 16 5 17 95 15 79 -2 98 -6 98 -18z m285 12 c0 -21 -29
-32 -81 -32 -56 0 -77 10 -64 30 7 12 145 14 145 2z m1728 -9 c-3 -17 -24 -18
-252 -21 -243 -2 -276 1 -276 29 0 5 120 9 266 9 247 0 265 -1 262 -17z
m-1658 -12 c0 -5 -20 -43 -45 -84 -89 -147 -137 -333 -115 -446 13 -68 12 -75
-5 -31 -19 49 -18 199 1 274 28 109 134 314 155 300 5 -3 9 -9 9 -13z m140
-87 c0 -3 -13 -22 -30 -42 -47 -59 -66 -154 -52 -256 6 -44 14 -92 17 -106 3
-14 -1 -8 -9 12 -38 97 -41 252 -5 321 22 42 79 94 79 71z m-304 -60 c-3 -9
-6 -18 -6 -20 0 -2 -85 -4 -190 -4 -183 0 -190 1 -190 20 0 19 7 20 196 20
175 0 195 -2 190 -16z m1544 -4 c0 -18 -7 -20 -75 -20 -41 0 -75 2 -75 4 0 2
-3 11 -6 20 -5 14 5 16 75 16 74 0 81 -2 81 -20z m275 0 c0 -12 -17 -16 -79
-18 -78 -3 -105 5 -91 28 4 7 36 10 88 8 65 -2 82 -6 82 -18z m-1315 -200 c63
-15 82 -4 56 34 -9 14 -16 27 -16 30 0 2 26 -11 58 -30 109 -66 272 -95 394
-71 35 7 38 6 43 -20 17 -92 38 -159 56 -185 19 -26 21 -40 17 -106 -9 -154
-101 -270 -263 -332 -116 -45 -293 -27 -396 39 -108 69 -166 162 -182 296
l-11 83 42 68 c38 65 63 138 77 227 l6 38 33 -29 c19 -17 56 -35 86 -42z
m-557 40 c-5 -19 -14 -20 -169 -20 -130 0 -164 3 -164 13 0 8 3 17 7 20 3 4
79 7 169 7 157 0 162 -1 157 -20z m1872 0 c0 -13 -29 -15 -186 -18 -181 -2
-187 -2 -192 18 -5 20 -2 20 186 18 163 -3 192 -5 192 -18z m-1987 -162 c3
-16 -7 -18 -107 -18 -86 0 -111 3 -111 13 0 25 13 28 114 25 87 -3 101 -5 104
-20z m1667 2 c0 -8 -10 -16 -22 -18 -18 -3 -23 2 -23 18 0 16 5 21 23 18 12
-2 22 -10 22 -18z m323 -2 c3 -16 -6 -18 -92 -18 -73 0 -96 3 -96 13 0 25 13
28 99 25 72 -3 86 -6 89 -20z m-1607 -73 c20 -53 26 -175 9 -175 -28 0 -81 86
-94 149 -8 43 16 84 46 79 14 -2 26 -18 39 -53z m1027 43 c16 -16 15 -81 -1
-121 -16 -36 -64 -97 -78 -97 -5 0 -9 24 -9 53 0 40 8 70 31 115 32 65 37 70
57 50z m-1264 -124 c3 -9 6 -18 6 -20 0 -2 -83 -4 -185 -4 -147 0 -185 3 -185
13 0 8 3 17 7 20 3 4 84 7 179 7 147 0 173 -2 178 -16z m1830 10 c9 -3 16 -12
16 -20 0 -11 -34 -14 -189 -14 -184 0 -228 7 -190 31 16 10 339 12 363 3z
m-1729 -278 c-77 -41 -142 -108 -176 -181 -25 -53 -63 -210 -114 -465 -21
-106 -16 -215 14 -285 27 -63 -1 -32 -31 35 -40 87 -36 166 21 444 38 182 59
262 78 298 37 68 130 152 195 176 74 28 81 15 13 -22z m1380 -266 c36 -38 36
-28 -5 -484 -16 -187 -30 -343 -30 -348 0 -4 -9 -17 -20 -28 -20 -20 -33 -20
-698 -20 -647 0 -680 1 -696 18 -13 15 -23 93 -51 410 -23 260 -32 400 -26
415 5 14 22 34 37 46 27 21 27 21 743 21 l717 0 29 -30z m-1450 -910 c38 -19
59 -20 704 -20 656 0 665 0 708 21 24 12 47 19 50 15 12 -12 -30 -58 -70 -77
-40 -18 -76 -19 -694 -19 -438 0 -661 3 -680 11 -31 11 -70 44 -84 72 -13 24
15 23 66 -3z"/>
<path d="M2249 2385 c-15 -8 -29 -21 -32 -28 -4 -11 3 -12 38 -4 29 7 56 7 83
0 34 -9 39 -8 35 4 -7 17 -55 43 -80 43 -10 -1 -30 -7 -44 -15z"/>
<path d="M2663 2380 c-44 -27 -42 -41 4 -28 20 5 56 7 80 3 53 -8 58 10 8 31
-45 18 -54 18 -92 -6z"/>
<path d="M2280 2300 c-26 -26 -27 -90 -2 -113 61 -55 124 40 71 107 -25 31
-42 33 -69 6z m60 -40 c0 -21 -15 -27 -25 -10 -7 12 2 30 16 30 5 0 9 -9 9
-20z"/>
<path d="M2673 2305 c-60 -42 -22 -152 46 -130 25 8 44 55 35 89 -5 23 -37 56
-54 56 -3 0 -15 -7 -27 -15z m27 -51 c0 -16 -16 -19 -25 -4 -8 13 4 32 16 25
5 -4 9 -13 9 -21z"/>
<path d="M2398 2057 c31 -32 75 -41 115 -22 l32 15 -40 -5 c-27 -3 -55 2 -85
16 l-44 20 22 -24z"/>
<path d="M2424 1541 c-81 -37 -133 -135 -120 -225 4 -27 22 -67 42 -97 19 -28
34 -56 34 -63 0 -7 6 -21 14 -31 12 -16 30 -19 119 -22 100 -3 106 -2 121 19
9 12 16 30 16 39 0 9 10 24 21 35 51 45 71 136 48 215 -36 119 -179 182 -295
130z m161 -30 c62 -28 115 -104 115 -166 0 -33 -26 -92 -55 -123 -18 -21 -35
-48 -36 -61 -5 -33 -29 -39 -36 -10 l-6 23 -8 -22 c-9 -24 -39 -20 -39 4 0 8
-4 14 -10 14 -5 0 -10 -7 -10 -15 0 -8 -7 -15 -15 -15 -8 0 -15 7 -15 15 0 8
-4 15 -10 15 -5 0 -10 -7 -10 -15 0 -26 -29 -16 -36 13 -4 15 -21 44 -37 65
-23 28 -31 50 -35 92 -2 30 -2 65 2 79 15 60 104 126 171 126 17 0 48 -9 70
-19z"/>
<path d="M2412 1368 c-15 -15 -16 -60 0 -76 18 -18 53 -14 74 9 17 19 17 23 3
47 -16 30 -57 40 -77 20z"/>
<path d="M2544 1356 c-15 -24 -15 -28 0 -52 22 -33 65 -30 83 6 27 55 -49 97
-83 46z"/>
</g>
</svg>
